<?xml version="1.0" encoding="UTF-8" standalone="no"?>
<svg
   xmlns:dc="http://purl.org/dc/elements/1.1/"
   xmlns:cc="http://creativecommons.org/ns#"
   xmlns:rdf="http://www.w3.org/1999/02/22-rdf-syntax-ns#"
   xmlns:svg="http://www.w3.org/2000/svg"
   xmlns="http://www.w3.org/2000/svg"
   xmlns:sodipodi="http://sodipodi.sourceforge.net/DTD/sodipodi-0.dtd"
   xmlns:inkscape="http://www.inkscape.org/namespaces/inkscape"
   version="1.1"
   id="Capa_1"
   x="0px"
   y="0px"
   viewBox="0 0 27.971 27.971"
   style="enable-background:new 0 0 27.971 27.971;"
   xml:space="preserve"
   sodipodi:docname="loop-one-icon.svg"
   inkscape:version="1.0.1 (3bc2e813f5, 2020-09-07)"><metadata
   id="metadata1576"><rdf:RDF><cc:Work
       rdf:about=""><dc:format>image/svg+xml</dc:format><dc:type
         rdf:resource="http://purl.org/dc/dcmitype/StillImage" /><dc:title></dc:title></cc:Work></rdf:RDF></metadata><defs
   id="defs1574" /><sodipodi:namedview
   pagecolor="#ffffff"
   bordercolor="#666666"
   borderopacity="1"
   objecttolerance="10"
   gridtolerance="10"
   guidetolerance="10"
   inkscape:pageopacity="0"
   inkscape:pageshadow="2"
   inkscape:window-width="1600"
   inkscape:window-height="837"
   id="namedview1572"
   showgrid="false"
   inkscape:zoom="11.313708"
   inkscape:cx="13.9855"
   inkscape:cy="12.243625"
   inkscape:window-x="-8"
   inkscape:window-y="-8"
   inkscape:window-maximized="1"
   inkscape:current-layer="Capa_1" />
<g
   id="g1539">
	<g
   id="c189_arrow">
		<path
   d="M23.92,14.746l-4.05-4.051h2.374l-0.068-0.177c-1.407-3.561-4.882-6.088-8.95-6.088c-5.312,0-9.62,4.307-9.62,9.616    c0,5.316,4.308,9.623,9.62,9.623c3.907,0,7.271-2.128,8.775-5.479l3.854,0.039c-0.013,0.03-3.032,8.918-12.693,8.918    C5.893,27.148,0,21.254,0,13.987C0,6.715,5.893,0.824,13.161,0.824c6.08,0,11.195,4.116,12.709,9.715l0.032,0.156h2.069    L23.92,14.746z"
   id="path1535" />
	</g>
	<g
   id="Capa_1_105_">
	</g>
</g>
<g
   id="g1541">
</g>
<g
   id="g1543">
</g>
<g
   id="g1545">
</g>
<g
   id="g1547">
</g>
<g
   id="g1549">
</g>
<g
   id="g1551">
</g>
<g
   id="g1553">
</g>
<g
   id="g1555">
</g>
<g
   id="g1557">
</g>
<g
   id="g1559">
</g>
<g
   id="g1561">
</g>
<g
   id="g1563">
</g>
<g
   id="g1565">
</g>
<g
   id="g1567">
</g>
<g
   id="g1569">
</g>
<text
   xml:space="preserve"
   style="font-style:normal;font-weight:normal;font-size:16px;line-height:1.25;font-family:sans-serif;fill:#ff0000;fill-opacity:1;stroke:none"
   x="8.0824289"
   y="19.499485"
   id="text1580"><tspan
     sodipodi:role="line"
     id="tspan1578"
     x="8.0824289"
     y="19.499485"
     style="font-size:16px;fill:#ff0000;fill-opacity:1">1</tspan></text></svg>
